<svg width="118" height="25" viewBox="0 0 118 25" fill="none" xmlns="http://www.w3.org/2000/svg">
<path d="M49.0696 16.9857C47.6963 15.6501 47 13.9847 47 12.0097C47 10.0348 47.6963 8.36937 49.0696 7.03283C50.4432 5.67822 52.1273 5.00061 54.1219 5C56.1165 4.99939 57.8006 5.677 59.1742 7.03283C60.5604 8.36937 61.2613 10.0338 61.2613 12.0097C61.2613 13.9856 60.565 15.6501 59.1908 16.9857C57.8165 18.3213 56.1153 18.9992 54.1228 18.9992C52.1304 18.9992 50.4429 18.3213 49.0696 16.9857ZM50.7332 15.436C51.6426 16.3464 52.7835 16.8139 54.1182 16.8139C55.453 16.8139 56.5755 16.3491 57.484 15.436C58.3934 14.5074 58.8619 13.3646 58.8619 12.0097C58.8619 10.6548 58.398 9.51117 57.484 8.58248C56.57 7.65379 55.453 7.18807 54.1182 7.18807C52.7835 7.18807 51.638 7.65288 50.7332 8.58248C49.8284 9.51209 49.3792 10.6539 49.3792 12.0097C49.3792 13.3839 49.8238 14.5266 50.7332 15.436Z" fill="#4F6BFE"/>
<path d="M70.9673 10.3818V8.9672H73.2887V18.7272H70.9673V17.3135C70.6385 18.2624 69.4581 18.9403 67.8524 18.9403C66.4788 18.9403 65.3183 18.4562 64.3709 17.488C63.4422 16.5005 62.9783 15.2999 62.9783 13.8476C62.9783 12.3954 63.4376 11.1948 64.3709 10.2266C65.3189 9.2391 66.4791 8.75684 67.8524 8.75684C69.4581 8.755 70.6385 9.43292 70.9673 10.3818ZM70.2711 15.9778C70.8507 15.4157 71.141 14.6992 71.141 13.8476C71.141 12.9961 70.8507 12.2796 70.2711 11.7174C69.995 11.4397 69.6653 11.221 69.3021 11.0747C68.9389 10.9283 68.5498 10.8573 68.1583 10.8659C67.7733 10.858 67.3908 10.9295 67.0347 11.076C66.6786 11.2225 66.3566 11.4409 66.0887 11.7174C65.5467 12.2796 65.2766 12.9961 65.2766 13.8476C65.2766 14.6992 65.5467 15.4157 66.0887 15.9778C66.3566 16.2544 66.6786 16.4728 67.0347 16.6193C67.3908 16.7658 67.7733 16.8373 68.1583 16.8294C68.5498 16.838 68.9389 16.767 69.3021 16.6206C69.6653 16.4742 69.995 16.2556 70.2711 15.9778Z" fill="#4F6BFE"/>
<path d="M75.01 18.7282V8.96823H77.3111V10.3626C77.7759 9.41375 78.8782 8.77441 80.2708 8.77441C82.5922 8.77441 83.9655 10.2653 83.9655 12.6857V18.7273H81.6442V13.0164C81.6442 11.6799 80.8707 10.8477 79.5745 10.8477C78.2591 10.8477 77.3111 11.7773 77.3111 13.1129V18.7282H75.01Z" fill="#4F6BFE"/>
<path d="M85.4204 6.45235C85.4193 6.1789 85.4993 5.91126 85.6503 5.68325C85.8012 5.45523 86.0163 5.27706 86.2685 5.17125C86.5207 5.06543 86.7985 5.03672 87.067 5.08873C87.3354 5.14075 87.5825 5.27116 87.7768 5.46349C87.9712 5.65582 88.1043 5.90144 88.1591 6.16933C88.214 6.43722 88.1882 6.71536 88.0851 6.96862C87.9819 7.22188 87.8061 7.43889 87.5797 7.59224C87.3532 7.74559 87.0865 7.82841 86.813 7.83022C86.6306 7.83304 86.4495 7.79943 86.2802 7.73136C86.1109 7.6633 85.957 7.56215 85.8273 7.43383C85.6976 7.30552 85.5948 7.15262 85.5249 6.98409C85.4551 6.81556 85.4195 6.63478 85.4204 6.45235ZM85.6519 18.7283V8.96835H87.9732V18.7283H85.6519Z" fill="#4F6BFE"/>
<path d="M98.3379 9.64788V11.971C97.942 11.5835 97.4736 11.2779 96.9593 11.0719C96.4451 10.8658 95.8953 10.7634 95.3414 10.7704C94.4326 10.7704 93.6784 11.061 93.0789 11.6421C92.479 12.2227 92.1887 12.9585 92.1887 13.8302C92.1887 14.7019 92.479 15.4368 93.0789 16.0183C93.6787 16.5997 94.4329 16.89 95.3414 16.89C96.5218 16.89 97.5277 16.4831 98.3397 15.6894V18.0125C97.5277 18.6708 96.4832 19 95.2063 19C93.6971 19 92.4404 18.5159 91.4153 17.5303C90.3901 16.5446 89.8867 15.3257 89.8867 13.832C89.8867 12.3384 90.3901 11.1213 91.4153 10.1338C92.4404 9.14633 93.6971 8.66408 95.2063 8.66408C96.4599 8.66163 97.5038 8.98956 98.3379 9.64788Z" fill="#4F6BFE"/>
<path d="M105.985 5.46235L99.7314 18.7286H102.284L103.402 16.2934L103.437 16.2171L106.186 10.0709C106.204 10.0327 106.232 10.0003 106.267 9.97759C106.302 9.95487 106.343 9.94278 106.385 9.94278C106.427 9.94278 106.468 9.95487 106.503 9.97759C106.538 10.0003 106.566 10.0327 106.583 10.0709L109.36 16.2741L110.486 18.7286H113.058L106.824 5.46235C106.788 5.38138 106.729 5.31261 106.655 5.26436C106.58 5.21611 106.493 5.19043 106.405 5.19043C106.316 5.19043 106.229 5.21611 106.155 5.26436C106.08 5.31261 106.021 5.38138 105.985 5.46235Z" fill="#4F6BFE"/>
<path d="M114.278 6.45235C114.277 6.1789 114.356 5.91126 114.507 5.68325C114.658 5.45523 114.874 5.27706 115.126 5.17125C115.378 5.06543 115.656 5.03672 115.924 5.08873C116.193 5.14075 116.44 5.27116 116.634 5.46349C116.828 5.65582 116.961 5.90144 117.016 6.16933C117.071 6.43722 117.045 6.71536 116.942 6.96862C116.839 7.22188 116.663 7.43889 116.437 7.59224C116.21 7.74559 115.944 7.82841 115.67 7.83022C115.488 7.83304 115.307 7.79943 115.137 7.73136C114.968 7.6633 114.814 7.56215 114.684 7.43383C114.555 7.30552 114.452 7.15262 114.382 6.98409C114.312 6.81556 114.277 6.63478 114.278 6.45235ZM114.51 18.7283V8.96835H116.831V18.7283H114.51Z" fill="#4F6BFE"/>
<path d="M34.98 11.7329C34.9144 10.4552 34.67 9.19146 34.2531 7.97519C34.0729 7.45196 33.8591 6.93979 33.6126 6.44161C33.1305 5.46042 32.5173 4.54249 31.7881 3.71055C29.6819 1.31982 26.8686 2.06051e-06 23.8675 2.06051e-06C23.0314 -0.0004067 22.1988 0.102891 21.3908 0.307281C20.5825 0.102767 19.7496 -0.000532037 18.9133 2.06051e-06C15.9122 0.00211153 13.0989 1.31982 10.9912 3.71055C10.2624 4.54203 9.64924 5.45921 9.16671 6.4395H6.34163C6.17121 6.21581 5.93066 6.04918 5.65447 5.96354C5.37828 5.8779 5.08065 5.87765 4.8043 5.96281C4.52794 6.04797 4.28707 6.21417 4.11623 6.43757C3.94539 6.66097 3.85337 6.93008 3.85337 7.20629C3.85337 7.4825 3.94539 7.75161 4.11623 7.97501C4.28707 8.19841 4.52794 8.36461 4.8043 8.44977C5.08065 8.53494 5.37828 8.53468 5.65447 8.44904C5.93066 8.3634 6.17121 8.19678 6.34163 7.97308H13.4805C13.0634 9.18924 12.8194 10.453 12.755 11.7307H2.48634C2.3159 11.5074 2.07543 11.341 1.79943 11.2556C1.52342 11.1702 1.22604 11.17 0.949952 11.2552C0.673861 11.3404 0.433233 11.5065 0.262576 11.7298C0.0919195 11.953 0 12.2219 0 12.4979C0 12.7739 0.0919195 13.0428 0.262576 13.266C0.433233 13.4892 0.673861 13.6554 0.949952 13.7406C1.22604 13.8257 1.52342 13.8256 1.79943 13.7402C2.07543 13.6548 2.3159 13.4884 2.48634 13.265H12.7565C12.8212 14.5423 13.0652 15.8055 13.482 17.0213H6.34311C6.17269 16.7976 5.93213 16.631 5.65594 16.5453C5.37975 16.4597 5.08213 16.4594 4.80578 16.5446C4.52942 16.6298 4.28855 16.796 4.11771 17.0194C3.94687 17.2428 3.85484 17.5119 3.85484 17.7881C3.85484 18.0643 3.94687 18.3334 4.11771 18.5568C4.28855 18.7802 4.52942 18.9464 4.80578 19.0316C5.08213 19.1167 5.37975 19.1165 5.65594 19.0308C5.93213 18.9452 6.17269 18.7786 6.34311 18.5549H9.16819C9.64981 19.5371 10.2625 20.4561 10.9912 21.2894C13.0974 23.6802 15.9107 25 18.9118 25C19.7481 25.0002 20.581 24.8969 21.3893 24.6927C22.1974 24.8968 23.0299 25 23.866 25C26.8671 25 29.6804 23.6816 31.7866 21.2894C32.5157 20.4582 33.1289 19.5409 33.6111 18.5605C33.8578 18.0619 34.0717 17.5493 34.2516 17.0255C34.6685 15.8097 34.913 14.5465 34.9785 13.2693C34.9926 13.0147 35 12.7588 35 12.5028C35 12.2469 34.9941 11.9881 34.98 11.7329ZM31.8 6.44161H28.6606C28.1772 5.46081 27.5635 4.54297 26.8346 3.71055C26.1038 2.87285 25.2465 2.14277 24.2905 1.54413C27.4218 1.70445 30.1648 3.61281 31.8 6.44161ZM10.9838 6.44161C12.6175 3.61281 15.3597 1.70445 18.4925 1.54624C17.5354 2.14352 16.6773 2.87295 15.9462 3.71055C15.2169 4.54183 14.6035 5.45904 14.121 6.4395L10.9838 6.44161ZM10.9838 18.5584H14.1232C14.605 19.5394 15.2177 20.4573 15.9462 21.2894C16.6763 22.1271 17.5331 22.8569 18.4888 23.4552C15.359 23.2941 12.6189 21.3865 10.9838 18.5584ZM24.2913 23.4531C25.2477 22.8552 26.1051 22.1253 26.8353 21.2873C27.5638 20.4555 28.1772 19.5384 28.6606 18.5584H31.8C30.1641 21.3865 27.4225 23.2941 24.2913 23.4531ZM32.5402 17.0234H24.5938C24.4232 16.7999 24.1826 16.6334 23.9065 16.5479C23.6303 16.4625 23.3328 16.4623 23.0565 16.5475C22.7803 16.6328 22.5395 16.799 22.3688 17.0223C22.198 17.2457 22.106 17.5148 22.106 17.7909C22.106 18.067 22.198 18.3361 22.3688 18.5594C22.5395 18.7828 22.7803 18.949 23.0565 19.0342C23.3328 19.1195 23.6303 19.1193 23.9065 19.0338C24.1826 18.9484 24.4232 18.7819 24.5938 18.5584H26.8435C25.5781 20.7473 23.6494 22.385 21.39 23.0874C19.13 22.3843 17.2012 20.7473 15.9366 18.5584C15.651 18.0651 15.4038 17.5525 15.197 17.0248C14.7236 15.8191 14.4453 14.5522 14.3717 13.2671C14.3554 13.014 14.348 12.7574 14.348 12.5007C14.348 12.2441 14.3554 11.9874 14.3717 11.7329C14.4453 10.4478 14.7236 9.18085 15.197 7.97519C15.4038 7.4475 15.651 6.93494 15.9366 6.44161C17.2012 4.25269 19.13 2.61363 21.39 1.91258C23.6494 2.61574 25.5781 4.25269 26.8435 6.44161H24.5938C24.4234 6.21792 24.1828 6.05129 23.9066 5.96565C23.6304 5.88001 23.3328 5.87976 23.0564 5.96492C22.7801 6.05008 22.5392 6.21628 22.3684 6.43968C22.1975 6.66308 22.1055 6.93219 22.1055 7.2084C22.1055 7.48461 22.1975 7.75372 22.3684 7.97712C22.5392 8.20052 22.7801 8.36672 23.0564 8.45188C23.3328 8.53705 23.6304 8.53679 23.9066 8.45115C24.1828 8.36551 24.4234 8.19889 24.5938 7.97519H32.5388C33.0114 9.18099 33.2892 10.4479 33.3626 11.7329H20.7333C20.5628 11.5092 20.3223 11.3427 20.0461 11.2572C19.7699 11.1716 19.4723 11.1714 19.196 11.2566C18.9197 11.3418 18.6789 11.508 18.5081 11.7314C18.3373 11.9548 18.2453 12.2238 18.2453 12.5C18.2453 12.7762 18.3373 13.0452 18.5081 13.2686C18.6789 13.492 18.9197 13.6582 19.196 13.7434C19.4723 13.8286 19.7699 13.8284 20.0461 13.7428C20.3223 13.6573 20.5628 13.4908 20.7333 13.2671H33.3634C33.29 14.5516 33.0129 15.8181 32.5402 17.0234Z" fill="#4F6BFE"/>
</svg>
